<svg width="40" height="41" viewBox="0 0 40 41" fill="none" xmlns="http://www.w3.org/2000/svg">
<g clip-path="url(#clip0_74_60)">
<path d="M27.6 29.8584L21.3 23.5584C20.8 23.9584 20.225 24.2751 19.575 24.5084C18.925 24.7418 18.2333 24.8584 17.5 24.8584C15.6833 24.8584 14.1458 24.2293 12.8875 22.9709C11.6292 21.7126 11 20.1751 11 18.3584C11 16.5418 11.6292 15.0043 12.8875 13.7459C14.1458 12.4876 15.6833 11.8584 17.5 11.8584C19.3167 11.8584 20.8542 12.4876 22.1125 13.7459C23.3708 15.0043 24 16.5418 24 18.3584C24 19.0918 23.8833 19.7834 23.65 20.4334C23.4167 21.0834 23.1 21.6584 22.7 22.1584L29 28.4584L27.6 29.8584ZM17.5 22.8584C18.75 22.8584 19.8125 22.4209 20.6875 21.5459C21.5625 20.6709 22 19.6084 22 18.3584C22 17.1084 21.5625 16.0459 20.6875 15.1709C19.8125 14.2959 18.75 13.8584 17.5 13.8584C16.25 13.8584 15.1875 14.2959 14.3125 15.1709C13.4375 16.0459 13 17.1084 13 18.3584C13 19.6084 13.4375 20.6709 14.3125 21.5459C15.1875 22.4209 16.25 22.8584 17.5 22.8584Z" fill="#326CFF"/>
</g>
<defs>
<clipPath id="clip0_74_60">
<rect y="0.858429" width="40" height="40" rx="20" fill="white"/>
</clipPath>
</defs>
</svg>
